<svg xmlns="http://www.w3.org/2000/svg">

  <symbol id="completed" xmlns="http://www.w3.org/2000/svg" height="100%" width="100%" viewBox="0 -960 960 960">
    <path
      d="m344-60-76-128-144-32 14-148-98-112 98-112-14-148 144-32 76-128 136 58 136-58 76 128 144 32-14 148 98 112-98 112 14 148-144 32-76 128-136-58-136 58Zm34-102 102-44 104 44 56-96 110-26-10-112 74-84-74-86 10-112-110-24-58-96-102 44-104-44-56 96-110 24 10 112-74 86 74 84-10 114 110 24 58 96Zm102-318Zm-42 142 226-226-56-58-170 170-86-84-56 56 142 142Z" />
  </symbol>

  <symbol id="go-back" xmlns="http://www.w3.org/2000/svg" height="100%" width="100%" viewBox="0 -960 960 960">
    <path
      d="M280-200v-80h284q63 0 109.5-40T720-420q0-60-46.5-100T564-560H312l104 104-56 56-200-200 200-200 56 56-104 104h252q97 0 166.5 63T800-420q0 94-69.5 157T564-200H280Z" />
  </symbol>

</svg>